<svg width="32" height="34" viewBox="0 0 32 34" fill="none" xmlns="http://www.w3.org/2000/svg">
<g clip-path="url(#clip0_172_25)">
<path d="M16 33.5C24.8366 33.5 32 26.1127 32 17C32 7.8873 24.8366 0.5 16 0.5C7.16344 0.5 0 7.8873 0 17C0 26.1127 7.16344 33.5 16 33.5Z" fill="#F0F0F0"/>
<path d="M31.0048 22.7389C31.648 20.9515 32 19.0181 32 16.9998C32 14.9816 31.648 13.0482 31.0048 11.2607H0.995188C0.352063 13.0482 0 14.9816 0 16.9998C0 19.0181 0.352063 20.9515 0.995188 22.7389L16 24.1737L31.0048 22.7389Z" fill="#0052B4"/>
<path d="M16.0001 33.5002C22.8795 33.5002 28.7442 29.0225 31.0049 22.7393H0.995239C3.25593 29.0225 9.12061 33.5002 16.0001 33.5002Z" fill="#D80027"/>
</g>
<defs>
<clipPath id="clip0_172_25">
<rect width="32" height="33" fill="white" transform="translate(0 0.5)"/>
</clipPath>
</defs>
</svg>
